<?xml version="1.0" encoding="UTF-8" standalone="no"?>
<svg xmlns:xlink="http://www.w3.org/1999/xlink" height="54.1px" width="50.35px" xmlns="http://www.w3.org/2000/svg">
  <g transform="matrix(1, 0, 0, 1, 25.2, 33.5)">
    <path d="M-25.2 1.85 L-25.2 1.95 -25.2 3.2 -25.2 3.4 -25.0 5.4 Q-24.15 11.95 -19.6 17.05 L-18.85 17.5 -18.3 17.75 -17.85 17.95 -17.7 18.05 -17.6 18.05 -17.1 18.25 -16.9 18.35 -15.85 18.65 -15.0 18.85 Q-8.55 20.6 -0.05 20.6 L1.35 20.6 Q10.8 20.4 17.6 18.05 L17.75 17.95 18.2 17.75 19.5 17.05 19.5 17.05 19.6 16.95 20.0 16.45 20.8 15.45 Q24.85 10.05 25.1 3.2 L25.1 2.8 25.15 1.85 25.15 0.8 25.1 -0.6 Q24.75 -7.0 22.7 -12.4 21.05 -16.7 18.3 -20.45 L18.25 -20.5 18.2 -20.6 16.15 -23.15 Q13.15 -26.3 8.95 -28.5 L7.0 -30.85 6.9 -31.05 Q5.2 -33.25 5.3 -33.5 L-5.95 -33.35 Q-6.15 -32.45 -6.95 -31.25 -8.3 -29.15 -10.5 -27.7 L-11.2 -27.25 Q-16.45 -23.35 -18.2 -20.6 L-18.3 -20.6 Q-22.0 -15.55 -23.7 -9.45 -25.2 -4.2 -25.2 1.85" fill="#ffcc00" fill-opacity="0.83137256" fill-rule="evenodd" stroke="none">
      <animate attributeName="fill" dur="2s" repeatCount="indefinite" values="#ffcc00;#ffcc01"/>
      <animate attributeName="fill-opacity" dur="2s" repeatCount="indefinite" values="0.83137256;0.83137256"/>
      <animate attributeName="d" dur="2s" repeatCount="indefinite" values="M-25.2 1.85 L-25.2 1.95 -25.2 3.2 -25.2 3.4 -25.0 5.4 Q-24.15 11.95 -19.6 17.05 L-18.85 17.5 -18.3 17.75 -17.85 17.95 -17.7 18.05 -17.6 18.05 -17.1 18.25 -16.9 18.35 -15.85 18.65 -15.0 18.85 Q-8.55 20.6 -0.05 20.6 L1.35 20.6 Q10.8 20.4 17.6 18.05 L17.75 17.95 18.2 17.75 19.5 17.05 19.5 17.05 19.6 16.95 20.0 16.45 20.8 15.45 Q24.85 10.05 25.1 3.2 L25.1 2.8 25.15 1.85 25.15 0.8 25.1 -0.6 Q24.75 -7.0 22.7 -12.4 21.05 -16.7 18.3 -20.45 L18.25 -20.5 18.2 -20.6 16.15 -23.15 Q13.15 -26.3 8.95 -28.5 L7.0 -30.85 6.9 -31.05 Q5.2 -33.25 5.3 -33.5 L-5.95 -33.35 Q-6.15 -32.45 -6.95 -31.25 -8.3 -29.15 -10.5 -27.7 L-11.2 -27.25 Q-16.45 -23.35 -18.2 -20.6 L-18.3 -20.6 Q-22.0 -15.55 -23.7 -9.45 -25.2 -4.2 -25.2 1.85;M-25.2 1.85 L-25.2 1.85 -25.2 3.1 -25.2 3.2 -25.05 5.2 Q-24.25 11.5 -20.1 16.45 L-19.6 17.05 -19.0 17.4 -18.55 17.65 -18.4 17.75 -18.3 17.75 -17.85 17.95 -17.7 18.05 -16.65 18.35 -15.85 18.65 Q-9.6 20.45 -1.35 20.6 L-0.05 20.6 Q9.05 20.6 15.8 18.7 L16.0 18.6 16.6 18.4 17.6 18.05 17.65 18.05 17.75 17.95 18.2 17.75 19.5 17.05 Q23.95 12.0 24.85 5.6 L24.95 5.2 25.0 4.4 25.1 3.2 25.15 1.85 Q25.15 -0.4 23.5 -9.35 22.75 -13.1 20.35 -17.1 L20.25 -17.2 20.15 -17.3 18.25 -19.95 Q15.85 -23.1 12.4 -26.35 L10.2 -28.25 10.0 -28.25 Q8.6 -28.25 7.2 -28.25 L-3.3 -28.05 Q-4.5 -28.05 -5.7 -28.05 -8.1 -28.0 -10.45 -28.0 L-11.15 -27.5 Q-15.15 -24.3 -17.85 -20.95 L-17.95 -20.85 Q-22.2 -15.6 -23.3 -9.95 -25.2 -0.35 -25.2 1.85"/>
    </path>
    <path d="M-25.2 1.85 Q-25.2 -4.2 -23.7 -9.45 -22.0 -15.55 -18.3 -20.6 L-18.2 -20.6 Q-16.45 -23.35 -11.2 -27.25 L-10.5 -27.7 Q-8.3 -29.15 -6.95 -31.25 -6.15 -32.45 -5.95 -33.35 L5.3 -33.5 Q5.2 -33.25 6.9 -31.05 L7.0 -30.85 8.95 -28.5 Q13.15 -26.3 16.15 -23.15 L18.2 -20.6 18.25 -20.5 18.3 -20.45 Q21.05 -16.7 22.7 -12.4 24.75 -7.0 25.1 -0.6 L25.15 0.8 25.15 1.85 25.1 2.8 25.1 3.2 Q24.85 10.05 20.8 15.45 L20.0 16.45 19.6 16.95 19.5 17.05 19.5 17.05 18.2 17.75 17.75 17.95 17.6 18.05 Q10.8 20.4 1.35 20.6 L-0.05 20.6 Q-8.55 20.6 -15.0 18.85 L-15.85 18.65 -16.9 18.35 -17.1 18.25 -17.6 18.05 -17.7 18.05 -17.85 17.95 -18.3 17.75 -18.85 17.5 -19.6 17.05 Q-24.15 11.95 -25.0 5.4 L-25.2 3.4 -25.2 3.2 -25.2 1.95 -25.2 1.85" fill="none" stroke="#000000" stroke-linecap="round" stroke-linejoin="round" stroke-opacity="0.0" stroke-width="1.0">
      <animate attributeName="stroke" dur="2s" repeatCount="indefinite" values="#000000;#000001"/>
      <animate attributeName="stroke-width" dur="2s" repeatCount="indefinite" values="0.0;0.0"/>
      <animate attributeName="fill-opacity" dur="2s" repeatCount="indefinite" values="0.0;0.0"/>
      <animate attributeName="d" dur="2s" repeatCount="indefinite" values="M-25.2 1.85 Q-25.2 -4.2 -23.7 -9.45 -22.0 -15.55 -18.3 -20.6 L-18.2 -20.6 Q-16.45 -23.35 -11.2 -27.25 L-10.5 -27.7 Q-8.3 -29.15 -6.95 -31.25 -6.15 -32.45 -5.95 -33.35 L5.3 -33.5 Q5.2 -33.25 6.9 -31.05 L7.0 -30.85 8.95 -28.5 Q13.15 -26.3 16.15 -23.15 L18.2 -20.6 18.25 -20.5 18.3 -20.45 Q21.05 -16.7 22.7 -12.4 24.75 -7.0 25.1 -0.6 L25.15 0.8 25.15 1.85 25.1 2.8 25.1 3.2 Q24.85 10.05 20.8 15.45 L20.0 16.45 19.6 16.95 19.5 17.05 19.5 17.05 18.2 17.75 17.75 17.95 17.6 18.05 Q10.8 20.4 1.35 20.6 L-0.05 20.6 Q-8.55 20.6 -15.0 18.85 L-15.85 18.65 -16.9 18.35 -17.1 18.25 -17.6 18.05 -17.7 18.05 -17.85 17.95 -18.3 17.75 -18.85 17.5 -19.6 17.05 Q-24.15 11.95 -25.0 5.4 L-25.2 3.4 -25.2 3.2 -25.2 1.95 -25.2 1.85;M-25.2 1.85 Q-25.2 -0.35 -23.3 -9.95 -22.2 -15.6 -17.95 -20.85 L-17.85 -20.95 Q-15.15 -24.3 -11.15 -27.5 L-10.45 -28.0 Q-8.1 -28.0 -5.7 -28.05 -4.5 -28.05 -3.3 -28.05 L7.2 -28.25 Q8.6 -28.25 10.0 -28.25 L10.2 -28.25 12.4 -26.35 Q15.85 -23.1 18.25 -19.95 L20.15 -17.3 20.25 -17.2 20.35 -17.1 Q22.75 -13.1 23.5 -9.35 25.15 -0.4 25.15 1.85 L25.1 3.2 25.0 4.4 24.95 5.2 24.85 5.6 Q23.95 12.0 19.5 17.05 L18.2 17.75 17.75 17.95 17.65 18.05 17.6 18.05 16.6 18.4 16.0 18.6 15.8 18.7 Q9.05 20.6 -0.05 20.6 L-1.35 20.6 Q-9.6 20.45 -15.85 18.65 L-16.65 18.35 -17.7 18.05 -17.85 17.95 -18.3 17.75 -18.4 17.75 -18.55 17.65 -19.0 17.4 -19.6 17.05 -20.1 16.45 Q-24.25 11.5 -25.05 5.2 L-25.2 3.2 -25.2 3.1 -25.2 1.85 -25.2 1.85"/>
    </path>
  </g>
</svg>
